<mxfile host="app.diagrams.net" modified="2023-05-31T13:26:03.324Z" agent="Mozilla/5.0 (X11; Linux x86_64) AppleWebKit/537.36 (KHTML, like Gecko) Chrome/107.0.0.0 Safari/537.36" version="21.3.6" etag="lDjL9F0d3W9fzbqOUrCN" type="github">
  <diagram name="Page-1" id="pOx-buuJQ0pBMOgSuJir">
    <mxGraphModel>
      <root>
        <mxCell id="0" />
        <mxCell id="1" parent="0" />
      </root>
    </mxGraphModel>
  </diagram>
</mxfile>
